<?xml version="1.0" encoding="UTF-8"?>
<svg id="Layer_1" xmlns="http://www.w3.org/2000/svg" version="1.1" viewBox="0 0 101.87 88.09">
  <!-- Generator: Adobe Illustrator 29.6.1, SVG Export Plug-In . SVG Version: 2.1.1 Build 9)  -->
  <defs>
    <style>
      .st0 {
        fill: #b17961;
      }
    </style>
  </defs>
  <path class="st0" d="M30.13,38.44c.62.49,1.84,2.71,1.69,2.37-.16-.35.5-2.42-.89-4.96-1.4-2.55-1.82-3.46-2.42-6.01-.6-2.56-1.7-4.67.12-6.24,1.84-1.57,3.25-3.85,3.83-6.27.58-2.42,2.53-4.32,4.7-6.97,2.18-2.64,2.61-3.02,2.61-3.02-.51.7-1.53,3.5-2.01,4.99-.49,1.48-2.85,4.72-3.92,6.44-1.06,1.72-3.5,5.05-3.71,8.16-.2,3.1,2.36,6.81,2.74,8.16.38,1.35-.51,5.22.42,7.95.92,2.74,3.52,5.3,3.98,5.64.46.32.36,0,.21-.2-.16-.18-.46-.46-1.08-1.78-.62-1.32-.34-2.79.09-4.77.44-1.99.68-3.6.48-5.59-.19-1.99-1.78-5.37-2.27-7.44-.49-2.06.77-4.08,2.83-7.6,2.06-3.52,2.37-6.5,2.64-8.68.28-2.18,1.46-5.29,4.75-6.66,1.89-.78,7.18.3,9.94,2.03,1.95,1.29,2.9,2.51,3.17,3.89.33,1.62-.66,2.74-1.27,4.34-.61,1.6-1.04,3.43-.35,3.37.61-.07,7.72-6.04,9.32-7.77.79-.86,1.84-3.08.34-5.05-1.3-1.72-10.54-2.49-12.33-4.97-1.59-2.19-5.69-2.08-6.88-1.27-1.12.74-3.57,2.81-5.95,3.62-2.39.82-4.85,1.21-8.07,2.85-3.22,1.65-3.1,3.55-3.44,4.95-.35,1.39-.61,5.14-3.24,9.15-2.65,4.02-1.11,6.79.19,10.85,1.3,4.05,3.16,6.02,3.79,6.5ZM63.61,3.02c5.52,1.79,6.75,6.56,4.83,8.74-1.06,1.22-2.27,1.94-5.05,3.66-2.78,1.72-3.87,2.62-4.75,3.28-.88.68-1.37,1.63.55,1.12.2-.05,11.89-2.57,13.4-3.36,2.54-1.32,3.26-2.25,3.67-3.96.39-1.72-2.23-4.55-3.46-5.96-2.48-2.86-8.43-5.83-8.69-5.86-2.99-1-6.66-.17-9.64-.03-.32.01-.21.5-.03.63,2.66,1.87,5.91.98,9.18,1.74ZM47.65,36.36c-.06.47.4.04.77-.48.37-.53,1.83-2.92,4.17-6.98,2.35-4.06,3.76-7.53,3.62-7.62-.14-.09-.49.24-.86.52-.38.28-1.15,1.02-1.79,1.84-.64.81-1.18.74-1.99.9-.82.17-2.29,1.79-3.16,2.46-.86.67-2,1.35-3.06,1.52-1.14.19-1.33-.32-1.81-.23-.48.09-.47.89-.3,1.45.17.56.03.8-.06,1.78-.09.98.6,1.95,1.18,2.5.57.55.41,1.42.78,1.71.38.3.51-1.69.51-2.92s-.28-2.43-.23-2.61c.05-.19,1.02-.44,1.48-.75.47-.29,1.61-1.11,2.16-1.38.56-.28.57-.07.43.25-.14.32-.45.82-1.07,1.34-.63.54-2.11.95-2.44.97-.33.03-.3.32.03.57.33.25,1.15.25,1.88.07.74-.2.64.76.55,1.78-.09,1.02-.71,2.85-.79,3.31ZM66.59,65.08c-5.48,7-14.69,6.73-20.99,9.25-7.35,2.94-12.36,8.12-13.68,9.43-2.26,2.24-5.12,1.67-6.66,1.57-1.54-.09-3.04-.88-3.66-.99-.62-.13-2.09.04-2.09.04,0,0,.04-.7.58-1.05.54-.35,1.63-.46,3.56-.85,1.94-.39,3.41-1.43,4.18-1.93.78-.5.27-.66-.24-.54-.49.12-2.05.73-4.75,1.12-2.7.39-3.56.19-4.6.89-1.04.69-.81,2.48-1.04,2.97-.24.5-.43.62-.77.31-.35-.31-.49-1.5-.23-2.51.27-1,1.86-1.81,3.32-2.16,1.47-.34,4.64-.55,8.04-2.35,10.1-5.35,14.54-9.38,23.47-16.27,9.51-7.33,17.97-11.37,24.64-14.6,4.11-2,16.31-3.48,16.31-3.48,0,0-1.74-1.18-3.56-1.38-1.08-.12-2.14-.15-3.19-.13,1.65-.9,5.9-4.18,6.52-8.38.83-5.64-6.64-10.27-6.74-15.4-.24-11.92-12.21-13.59-11.66-13.26,2.25,1.38,4.55,4.07,4.98,5.62.77,2.81-1.6,5.88-5.08,7.04-1.66.55-10.85,2.56-12.08,3.8-1.25,1.23,1.29,7.73-.33,10.36-1.63,2.63-10.77,7.14-11.85,8.41-1.09,1.27-2.24.89-2.63.85-.38-.04-.07.47,1.05.69,1.12.23,3.05-.43,4.18-1.04,1.12-.63,2.69.71,2.62,1.56-.09.84-1.14,1.1-3.2,2.39-1.64,1.04-6.3-1.87-6.69-2.84-.38-.96.97-.65,1.82-1.7.85-1.04-.62-1.2-1.16-1.04-.54.16-.85-.11-1.39-.27-.54-.15-1.23,0-1.58.39-.35.38,0,.69-1.28.85-1.28.15-.69-1.4-.42-3.06.27-1.66,1.32-6.06,1.12-6.64-.2-.59-.24-.36-.7-.9-.46-.55-.5-1.51-.54-3.09-.04-1.58.08-4.52.08-4.52,0,0-.97,1.43-1.39,3.93-.42,2.52,1.32,3.91,1.36,4.3.03.39-.05,1.31-.81,5.75-.78,4.44.18,5.3,1.16,6.07.96.78,5.29,3.01,5.29,3.01l-.08,2s-2.13.69-4.17,2.01c-2.04,1.31-2.78,3.66-2.94,4.44-.16.78.27.66.27.66,0,0,.47-.5,2.06-1.74,1.57-1.23,5.05-1.9,5.48-1.93.43-.03.46.12-.08.5-.54.38-1.97,1.43-5.01,3.7-3.05,2.28-3.48,5.14-3.48,5.8s.43.12.43.12c0,0,.42-.97,1.47-1.93,1.04-.97,3.4-1.55,6.02-1.97,2.62-.43,3.05-1.08,3.86-2.28.81-1.19,3.02-3.43,3.48-3.71.46-.26.58-.11.31.07-.27.2-.42.35-1.82,1.86-1.39,1.5-1.62,3.29-1.62,3.29,0,0,.77-1.04,2.47-2.25,1.71-1.2,5.83-2.54,6.92-2.81,1.07-.27,1-.12.81.04-.19.15-.32.19-1.52.81-1.19.62-5.4,3.13-10.96,7.23-5.66,4.2-10.29,9.05-14.84,12.44-4.52,3.36-7.95,4.87-9.73,5.18-1.78.31-3.87-.73-6.5-.85-2.62-.11-4.4,1.67-4.67,2.05-.28.38-.28.73-.04.69.24-.04.66-.5,1.05-.5s.35.23.35.23c0,0-.19.08-.93.45-.74.4-1.85,1.48-2.39,3.15-.54,1.65.73,4.12.73,4.12,0,0,.83,0,1.94.47,1.12.46,1.85.77,2.39,1.08.54.31,1.08.38,2.2.09,1.12-.32,3.4-.32,4.98-.24,1.59.07,7.76,1.58,11.7-1,12.37-10.86,25.32-9.93,29.97-11.57,9.54-3.46,7.97-16.34,24.74-14.39-.73-1.84-13.86-6.07-22.11,4.45ZM83.12,40.8c3.71-3.71,4.3-7.65,4.48-9.28.7,3.53-1.32,8.6-2.93,10.9-1.38.06-2.71.24-3.96.45.93-.51,1.54-1.2,2.41-2.07ZM81.24,28.84c2.96,5.09-1.11,10.86-2.01,11.68-.72.68-2.21,1.48-3.22,1.98,1.78-1.65,3.42-3.7,3.89-6.1.47-2.45-.3-4.89-1.58-7.64-.24-.52-4.74-7.16-5.14-7.54.75.12,6.53,4.23,8.05,7.61ZM67.23,23.39c-.17-.43,4.8,8.98,3.81,13.13-1.58,6.59-7.45,11.13-7.45,11.13,0,0,2.82-5.39,3.24-6.35.42-.96,3.22-10.77.4-17.92ZM56.46,42.1c1.87-1.09,7.33-9.64,7.53-9.19.19.45.5,2.83-.1,4.48-.79,2.18-7.43,4.71-7.43,4.71ZM13.11,83.12c-.31.76-1.33-.45-1.01-1.3.08-.24,1.34-2.99,4.1-2.41.76.16-2.09,1.26-3.08,3.71ZM53.08,14.11c.71.98.07,4.05.84,3.97.76-.09,3.37-5.14,2.5-6.88-.88-1.74-7.02-3.77-8.07-3.84-4.16-.25-5.39,3.09-5.88,5.75-.21,1.2-4.18,9.85-3.99,9.59l8.21-9.28c1.42-1.42,5.37-.71,6.39.7Z"/>
</svg>