<?xml version="1.0" encoding="UTF-8"?>
<svg id="Layer_1" xmlns="http://www.w3.org/2000/svg" version="1.1" viewBox="0 0 102.2 78.88">
  <!-- Generator: Adobe Illustrator 29.6.1, SVG Export Plug-In . SVG Version: 2.1.1 Build 9)  -->
  <defs>
    <style>
      .st0 {
        fill: #b17961;
      }
    </style>
  </defs>
  <path class="st0" d="M14.05,2.86c-4.02,2.39-6.29,6.75-6.62,11.16-.23,2.96.54,6.64,1.47,9.44,5.62,16.99,22.6,24.69,40.03,25.2.21,0,.25.31.05.37l-1.17.35c-6.88,2.03-15.99,3.39-22.83,3.6-.59.02-1.15.28-1.55.72-6.45,7.16-12.27,15.68-16.05,24.57-.14.32.13.66.46.59,14.7-3.08,28.94-9.2,40.01-21.29,2.42-2.64,5.59-4.43,9.05-5.08.32-.06.64-.12.96-.19,10.59-2.3,19.14-9.09,24.17-18.03.37-.66.68-1.36.97-2.07,1.33-3.28,3.34-5.79,5.64-7.66,1.26-1.03,2.7-1.81,4.22-2.36l1.64-.59c.28-.09.45-.4.36-.69h0c-.4-1.45-1.32-2.32-2.77-2.9-.05-.02-.08-.06-.1-.1-2.03-5.05-8.83-5.98-14.11-3.25-.18.1-.36.19-.53.3-.14.08-.17.26-.09.4.42.67.75,1.41.97,2.21.17.6.26,1.24.29,1.88h-.02c.02.28.02.55.01.82-.09,1.83-.68,3.71-1.65,5.29-1.35,2.03-3.44,3.52-5.9,4.02-.42.08-.84.15-1.26.21-.75.1-1.5.14-2.24.14-.22,0-.44,0-.65-.02-6.48-.4-11.54-6.59-16.97-13.22-5.49-6.71-11.36-13.87-19.47-15.93-1.95-.49-3.94-.77-5.94-.77-3.47,0-6.97.84-10.37,2.86"/>
</svg>