<?xml version="1.0" encoding="UTF-8"?>
<svg id="Layer_1" xmlns="http://www.w3.org/2000/svg" version="1.1" viewBox="0 0 114.45 104.12">
  <!-- Generator: Adobe Illustrator 29.6.1, SVG Export Plug-In . SVG Version: 2.1.1 Build 9)  -->
  <defs>
    <style>
      .st0 {
        fill: #b17961;
      }
    </style>
  </defs>
  <path class="st0" d="M13.72,91.91c-.1,0-.2.03-.2.17v11.87h6.53c.13,0,.17-.1.17-.2v-.92c0-.13-.03-.21-.18-.21h-4.99v-10.53c0-.13-.1-.17-.2-.17h-1.13Z"/>
  <path class="st0" d="M28.1,100.09v-4.31c0-1.66,1-2.68,2.81-2.68s2.83,1.04,2.83,2.7v4.31c0,1.65-1.02,2.67-2.83,2.67s-2.81-1.02-2.81-2.68M26.57,96.4v3.83c0,2.4,1.6,3.88,4.34,3.88,3.21,0,4.34-1.74,4.34-4.64v-3.82c0-2.37-1.61-3.92-4.34-3.92-3.22,0-4.34,1.83-4.34,4.66"/>
  <path class="st0" d="M42.45,91.91v12.03h6.19c.13,0,.18-.08.18-.2v-.94c0-.1-.02-.2-.18-.2h-4.66v-4.16h4.25c.13,0,.18-.1.18-.2v-.89c0-.1-.05-.21-.18-.21h-4.25v-3.9h4.66c.13,0,.18-.1.18-.2v-.92c0-.12-.05-.22-.18-.22h-6.19Z"/>
  <path class="st0" d="M57.89,93.24h1.94c1.73,0,2.29.71,2.29,2.06v.48c0,1.27-.56,2.16-2.17,2.16h-2.06v-4.69ZM56.36,91.91v11.85c0,.13.1.18.2.18h1.14c.11,0,.2-.05.2-.18v-4.52h2.07l2.32,4.56c.05.1.11.15.23.15h1.38c.1,0,.18-.07.11-.2l-2.5-4.71c1.48-.48,2.14-1.63,2.14-3.16v-.67c0-1.94-.99-3.29-3.6-3.29h-3.69Z"/>
  <path class="st0" d="M71.29,91.91c-.1,0-.2.03-.2.18v11.67c0,.13.1.18.2.18h1.13c.11,0,.2-.05.2-.18v-11.67c0-.13-.08-.18-.2-.18h-1.13Z"/>
  <path class="st0" d="M80.72,91.91v12.03h6.19c.13,0,.18-.08.18-.2v-.94c0-.1-.01-.2-.18-.2h-4.66v-4.16h4.25c.13,0,.18-.1.18-.2v-.89c0-.1-.05-.21-.18-.21h-4.25v-3.9h4.66c.13,0,.18-.1.18-.2v-.92c0-.12-.05-.22-.18-.22h-6.19Z"/>
  <path class="st0" d="M93.65,94.77c0,1.92,1.27,2.67,3.34,3.64,1.73.84,2.38,1.28,2.38,2.52,0,1.33-1.04,1.88-2.16,1.88-1.41,0-2.26-.69-2.48-1.73-.07-.23-.17-.25-.33-.2l-.89.3c-.15.05-.23.16-.18.34.4,1.43,1.6,2.6,3.87,2.6s3.73-1.3,3.72-3.26c-.02-1.99-1.27-2.8-3.09-3.69-1.68-.82-2.68-1.25-2.68-2.4s.69-1.7,2.02-1.7c1.2,0,1.92.62,2.27,1.61.07.13.17.2.31.13l.89-.31c.17-.07.22-.2.17-.35-.46-1.3-1.6-2.42-3.65-2.42s-3.5,1.2-3.5,3.03"/>
  <path class="st0" d="M20.22,2.76c-4,2.31-6.26,6.53-6.6,10.79-.22,2.86.54,6.41,1.46,9.13,5.59,16.42,22.5,23.87,39.86,24.36.21,0,.25.3.05.36l-1.17.33c-6.85,1.96-15.93,3.28-22.73,3.48-.59.02-1.14.27-1.55.7-6.42,6.92-12.22,15.15-15.98,23.76-.13.3.14.64.46.57,14.64-2.97,28.82-8.89,39.84-20.58,2.41-2.55,5.56-4.28,9.01-4.91.32-.06.64-.12.96-.19,10.54-2.22,19.05-8.79,24.06-17.43.37-.64.68-1.32.97-2,1.32-3.17,3.33-5.6,5.61-7.41,1.26-1,2.69-1.75,4.2-2.28l1.63-.57c.28-.09.44-.38.36-.67h0c-.4-1.4-1.31-2.24-2.76-2.8-.05-.02-.08-.05-.1-.1-2.03-4.88-8.79-5.78-14.05-3.14-.18.09-.35.18-.53.28-.14.08-.18.25-.09.38.42.65.75,1.36.97,2.14.17.58.26,1.2.28,1.82h-.02c.02.27.02.53.02.79-.09,1.77-.68,3.59-1.64,5.11-1.35,1.96-3.43,3.4-5.88,3.89-.42.08-.84.15-1.25.2-.75.09-1.5.14-2.23.14-.22,0-.43-.01-.65-.02-6.46-.38-11.49-6.37-16.89-12.77-5.47-6.49-11.31-13.41-19.39-15.4-1.94-.47-3.92-.74-5.92-.74-3.45,0-6.94.81-10.33,2.76"/>
</svg>