<?xml version="1.0" encoding="UTF-8"?>
<svg id="Layer_1" xmlns="http://www.w3.org/2000/svg" version="1.1" viewBox="0 0 30.77 64.79">
  <!-- Generator: Adobe Illustrator 29.6.1, SVG Export Plug-In . SVG Version: 2.1.1 Build 9)  -->
  <defs>
    <style>
      .st0 {
        fill: #9b9a98;
      }
    </style>
  </defs>
  <path class="st0" d="M18.99,63.1c-2.25-14.66-2.62-29.48-2.66-44.34-.07,0-.14-.02-.21-.03-.06.44-.12.87-.18,1.31-.06.44-.13.89-.17,1.33-.61,6.77-1.32,13.53-1.6,20.32-.24,5.87-.07,11.74.04,17.62.03,1.56.11,3.11.15,4.67.02.86-.14.98-.91.61-2.2-1.06-3.84-2.76-5.04-4.92-1.71-3.07-2.44-6.46-2.88-9.91-.63-5-.8-10.04-.54-15.07.44-8.62,2.1-16.97,5.78-24.8,1.48-3.15,3.32-6.06,6.12-8.16,1.48-1.11,3.11-1.9,5.02-1.69,1.88.21,2.9,1.42,2.9,3.38,0,1.6-.46,3.14-.69,4.7-.31,2.05.05,3.99.6,5.93.47,1.66.98,3.32,1.15,5.06.23,2.25-.52,4.31-1.19,6.38-.89,2.75-1.63,5.52-1.07,8.45.28,1.47.72,2.89.74,4.41.04,2.64-.72,5.08-1.51,7.53-.47,1.47-.44,2.9-.08,4.41.76,3.23.82,6.47-.51,9.6-.55,1.29-1.59,2.2-2.58,3.12-.15.14-.34.23-.66.09"/>
</svg>