<?xml version="1.0" encoding="UTF-8"?>
<svg id="Layer_1" xmlns="http://www.w3.org/2000/svg" version="1.1" viewBox="0 0 331.14 205.85">
  <!-- Generator: Adobe Illustrator 29.6.1, SVG Export Plug-In . SVG Version: 2.1.1 Build 9)  -->
  <defs>
    <style>
      .st0 {
        fill: #b17961;
      }
    </style>
  </defs>
  <path class="st0" d="M97.05,115.97c0,3.4,2.72,6.13,6.13,6.13h4.17c3.41,0,6.04-2.64,6.04-6.13v-25.2c0-3.49-2.64-6.13-6.04-6.13h-4.17c-3.41,0-6.13,2.73-6.13,6.13v25.2"/>
  <path class="st0" d="M253.7,0h-71.23c-1.33,0-3.18.77-4.12,1.71l-74,74h3.01c9.53,0,15.83,6.04,15.83,15.07v25.2c0,9.02-6.3,15.07-15.83,15.07h-4.17c-9.62,0-15.84-6.05-15.84-15.07v-23.27l-35.38,35.38c-.94.94-1.71,2.79-1.71,4.12v71.24c0,1.33,1.09,2.41,2.41,2.41h71.23c1.33,0,3.18-.77,4.12-1.71l73.95-73.95h-21.51c-.59,0-.85-.25-.85-.85v-51.93c0-.59.26-.85.85-.85h30.06c.51,0,.85.26.85.85v7.24c0,.6-.25.85-.85.85h-20.26c-.6,0-.85.26-.85.85v11.32c0,.6.26.85.85.85h16.6c.6,0,.85.26.85.85v7.24c0,.59-.26.85-.85.85h-16.6c-.6,0-.85.26-.85.85v12.09c0,.6.26.85.85.85h20.26c.13,0,.24.02.35.05l43.53-43.53c.94-.94,1.71-2.79,1.71-4.12V2.41c0-1.33-1.08-2.41-2.41-2.41ZM168.13,129.34c0,.6-.26.85-.85.85h-7.07l-.77-.42-17.45-34.22.43,33.8c0,.6-.25.85-.85.85h-7.92c-.6,0-.85-.25-.85-.85v-51.93c0-.59.26-.85.85-.85h7.15l.77.43,17.37,34.56-.34-34.14c0-.59.26-.85.85-.85h7.83c.51,0,.85.26.85.85v51.93"/>
  <g>
    <g>
      <path class="st0" d="M39.94,79.45h-3.89c-.25,0-.36.11-.36.36v18.03c0,.25-.11.36-.36.36h-3.36c-.25,0-.36-.11-.36-.36v-18.03c0-.25-.11-.36-.36-.36h-3.89c-.25,0-.36-.11-.36-.36v-3.04c0-.25.11-.36.36-.36h12.57c.21,0,.36.11.36.36v3.04c0,.25-.11.36-.36.36Z"/>
      <path class="st0" d="M58.4,98.2h-3.36c-.25,0-.36-.11-.36-.36v-8.82c0-.25-.11-.36-.36-.36h-6.64c-.25,0-.36.11-.36.36v8.82c0,.25-.11.36-.36.36h-3.39c-.25,0-.36-.11-.36-.36v-21.78c0-.25.11-.36.36-.36h3.39c.21,0,.36.11.36.36v8.5c0,.25.11.36.36.36h6.64c.25,0,.36-.11.36-.36v-8.5c0-.25.11-.36.36-.36h3.36c.25,0,.36.11.36.36v21.78c0,.25-.11.36-.36.36Z"/>
      <path class="st0" d="M75.65,98.2h-12.6c-.25,0-.36-.11-.36-.36v-21.78c0-.25.11-.36.36-.36h12.6c.21,0,.36.11.36.36v3.04c0,.25-.11.36-.36.36h-8.5c-.25,0-.36.11-.36.36v4.75c0,.25.11.36.36.36h6.96c.25,0,.36.11.36.36v3.04c0,.25-.11.36-.36.36h-6.96c-.25,0-.36.11-.36.36v5.07c0,.25.11.36.36.36h8.5c.21,0,.36.11.36.36v3.04c0,.25-.11.36-.36.36Z"/>
    </g>
    <g>
      <path class="st0" d="M232.39,113.55c0,1.68,1.64,2.18,4.14,3.32,3.82,1.75,5.61,3.71,5.61,7.25,0,3.78-2.61,6.32-6.64,6.32h-1.43c-2.04,0-3.57-.57-4.64-1.68-1.18-1.21-1.64-2.25-1.64-2.61,0-.07.07-.18.21-.25l3.11-1.54c.07-.04.11-.04.18-.04.25,0,.32.36.68,1.07.39.75,1.29,1.29,2.11,1.29h1.43c1.39,0,2.57-1.14,2.57-2.57,0-1.79-1.5-2.43-3.82-3.54-3.93-1.89-5.93-3.5-5.93-7.03,0-3.78,2.64-6.32,6.64-6.32h.53c1.64,0,2.93.36,4.07,1.18,1.39,1,2.28,2.61,2.28,3.04,0,.14-.07.21-.21.29l-3.11,1.54c-.07.04-.14.04-.18.04-.18,0-.25-.21-.46-.54-.68-1.14-1.28-1.79-2.39-1.79h-.53c-1.39,0-2.57,1.11-2.57,2.57Z"/>
      <path class="st0" d="M260.03,130.08h-3.36c-.25,0-.36-.11-.36-.36v-8.82c0-.25-.11-.36-.36-.36h-6.64c-.25,0-.36.11-.36.36v8.82c0,.25-.11.36-.36.36h-3.39c-.25,0-.36-.11-.36-.36v-21.78c0-.25.11-.36.36-.36h3.39c.21,0,.36.11.36.36v8.5c0,.25.11.36.36.36h6.64c.25,0,.36-.11.36-.36v-8.5c0-.25.11-.36.36-.36h3.36c.25,0,.36.11.36.36v21.78c0,.25-.11.36-.36.36Z"/>
      <path class="st0" d="M272.2,130.44h-1.75c-4.03,0-6.64-2.54-6.64-6.32v-10.57c0-3.78,2.64-6.32,6.64-6.32h1.75c4,0,6.64,2.54,6.64,6.32v10.57c0,3.78-2.64,6.32-6.64,6.32ZM274.74,113.55c0-1.46-1.11-2.57-2.54-2.57h-1.75c-1.43,0-2.57,1.14-2.57,2.57v10.57c0,1.43,1.14,2.57,2.57,2.57h1.75c1.43,0,2.54-1.11,2.54-2.57v-10.57Z"/>
      <path class="st0" d="M299.38,129.79c-.04.18-.18.29-.36.29h-2.61c-.21,0-.32-.07-.36-.25l-3.61-14.14-3.57,14.14c-.04.18-.14.25-.36.25h-2.61c-.18,0-.32-.11-.36-.29l-4.71-21.78s-.04-.11-.04-.14c0-.18.14-.29.39-.29h3.64c.18,0,.32.11.36.29l2.61,14.53,3.39-14.64c.04-.18.14-.25.36-.25h1.79c.21,0,.32.07.36.25l3.39,14.64,2.64-14.53c.04-.18.18-.29.36-.29h3.64c.25,0,.39.11.39.29,0,.04-.04.11-.04.14l-4.71,21.78Z"/>
    </g>
  </g>
</svg>